<?xml version="1.0" encoding="utf-8" ?>
<svg xmlns="http://www.w3.org/2000/svg" xmlns:xlink="http://www.w3.org/1999/xlink" width="1024" height="1024">
	<path transform="scale(2 2)" d="M189.297 64.5054C205.697 62.706 219.739 74.7677 224.074 90.0025C227.249 90.1999 230.43 90.0319 233.609 90.0175L304.766 90.0025C308.47 92.2528 316.794 101.392 320.246 104.881C331.97 116.731 344.035 128.249 355.862 139.996L368.57 152.575C370.404 154.358 372.263 156.533 374.376 157.977C395.256 157.922 411.134 158.594 411.347 184.375L411.41 417.019C411.516 449.103 394.194 445.797 370.066 445.789L323.938 445.798L169.525 445.801C142.551 445.835 132.445 444.988 132.505 414.86C108.689 414.989 100.663 410.959 100.654 385.79L100.645 115.21C100.617 89.342 113.823 90.0006 135.271 89.995L160.239 90.0025C163.458 75.6242 174.435 65.8823 189.297 64.5054ZM160.819 103.864C160.305 102.811 160.017 101.181 159.203 100.384C152.886 99.9557 123.888 99.3332 118.087 100.489C108.147 102.47 110.69 118.248 110.692 125.411L110.69 376.478C110.662 391.562 106.578 404.505 126.492 404.732C143.608 404.927 160.746 404.741 177.864 404.74L349.203 404.745C355.017 404.743 361.665 405.914 366.177 401.435C371.329 396.321 369.259 380.504 369.258 373.747L369.253 204.375L369.253 168.252L310.805 168.282C300.244 168.319 298.657 167.918 298.719 156.06L298.746 100.249L224.074 100.249C224.075 119.463 224.437 138.771 224.074 157.977C242.341 156.702 242.546 170.073 242.508 183.749L242.51 229.331C242.512 233.124 242.879 237.338 242.256 241.063C239.644 256.684 223.052 254.249 211.655 254.242L163.808 254.273C150.985 254.321 141.675 252.859 141.288 237.695C140.909 222.848 141.254 207.896 141.253 193.04L141.256 178.561C141.262 166.139 144.259 156.127 160.239 157.977C160.082 148.718 159.303 132.474 160.322 123.569C160.706 120.212 162.201 119.573 165.358 118.872C167.116 119.342 168.651 119.901 169.559 121.589C171.124 124.496 170.389 152.743 170.384 157.977L213.757 157.977L213.769 114.393C213.769 107.922 214.418 96.7765 213.149 90.816C211.045 80.9389 199.35 72.9475 189.297 75.1059C179.154 76.2461 171.315 83.9989 169.802 94.0193C169.155 98.3064 170.445 110.119 160.819 103.864Z"/>
	<path transform="scale(2 2)" d="M265.752 278.654L329.663 278.647C335.784 278.616 340.399 276.72 342.39 284.093C340.342 291.519 331.221 289.007 324.746 288.998L213.757 288.988C207.215 288.827 200.642 288.98 194.096 288.981L155.995 288.987C150.677 288.989 145.34 289.123 140.026 288.988C139.974 288.936 139.921 288.884 139.87 288.832L139.616 288.566C138.236 287.137 137.688 285.957 137.141 284.093C138.842 276.072 149.549 278.644 156.371 278.649L265.752 278.654Z"/>
	<path transform="scale(2 2)" d="M143.021 361.813C158.723 362.119 174.488 361.814 190.197 361.814L319.817 361.816C324.309 361.816 336.276 360.583 339.993 362.777C344.343 365.344 342.065 371.369 337.602 372.023L158.753 372.03C153.764 372.022 147.463 372.433 142.712 372.22C136.004 371.92 135.7 363.231 143.021 361.813Z"/>
	<path transform="scale(2 2)" d="M215.094 320.104L326 320.101C330.552 320.096 335.155 319.893 339.7 320.104C343.954 323.893 343.06 327.622 338.444 330.249L264.875 330.249L141.265 330.249C138.36 328.721 135.948 324.548 138.836 321.783C141.584 319.152 148.52 320.1 151.975 320.099L215.094 320.104Z"/>
	<path transform="scale(2 2)" d="M258.558 236.994C260.424 236.697 262.734 236.966 264.644 236.951L320.047 237.002C324.225 237.008 336.327 235.896 339.725 237.847C344.135 240.378 342.038 246.39 337.602 247.268C333.9 247.573 330.089 247.285 326.369 247.277L275.316 247.252C270.801 247.267 259.526 248.466 255.727 246.306C251.044 243.642 253.574 237.91 258.558 236.994Z"/>
	<path transform="scale(2 2)" d="M190.425 83.1083C206.882 80.5613 212.306 108.773 193.113 110.363C174.02 111.073 173.229 84.725 190.425 83.1083ZM193.113 100.249C197.302 97.5521 195.356 93.4376 190.425 93.7659C186.885 96.3022 188.527 100.93 193.113 100.249Z"/>
	<path fill="#6ED6F9" transform="scale(2 2)" d="M379.497 168.252C391.744 168.127 400.892 168.508 401.061 183.521C401.255 200.725 401.037 217.96 401.037 235.166L401.049 396.979C401.049 406.075 401.594 417.322 400.747 426.227C399.837 435.793 389.631 435.465 382.865 435.45L165.358 435.431C145.339 435.329 142.962 435.845 143.021 414.86C148.871 414.705 154.765 414.857 160.62 414.857L341.041 414.862C363.193 414.878 379.541 417.643 379.513 388.007L379.497 168.252Z"/>
	<path fill="#F7B2AC" transform="scale(2 2)" d="M156.735 168.252C157.9 168.218 159.073 168.249 160.239 168.252C158.35 208.181 220.194 216.825 224.074 168.252C235.939 168.066 232.375 176.759 232.371 186.645L232.36 216.125L232.385 230.685C232.414 245.993 230.441 244.121 217.182 244.107L171.036 244.094C166.287 244.116 161.353 244.431 156.621 244.118C149.091 243.619 151.312 232.161 151.31 226.92L151.314 185.263C151.296 180.094 149.129 168.504 156.735 168.252Z"/>
	<path fill="#6ED6F9" transform="scale(2 2)" d="M308.84 108.578C311.73 110.507 314.749 114.104 317.27 116.574L352.383 151.269C354.607 153.458 357.136 155.6 359.137 157.977L308.84 157.977L308.84 108.578Z"/>
	<path fill="#FADB92" transform="scale(2 2)" d="M193.896 168.252L213.757 168.252C212.781 181.851 204.64 191.483 190.425 191.5C177.984 190.387 170.137 180.478 170.384 168.252C173.033 168.069 175.778 168.226 178.436 168.231L193.896 168.252Z"/>
</svg>
